<svg width="41" height="40" viewBox="0 0 41 40" fill="none" xmlns="http://www.w3.org/2000/svg">
<path fill-rule="evenodd" clip-rule="evenodd" d="M20.1017 34.7563C16.484 32.5298 13.1185 29.9094 10.0655 26.9419C7.91907 24.8049 6.28501 22.1996 5.2885 19.3256C3.49524 13.7505 5.58989 7.36804 11.4519 5.4792C14.5327 4.48739 17.8974 5.05425 20.4935 7.00246C23.0906 5.05663 26.4541 4.48996 29.5351 5.4792C35.3971 7.36804 37.5068 13.7505 35.7136 19.3256C34.717 22.1996 33.083 24.8049 30.9366 26.9419C27.8835 29.9094 24.5181 32.5298 20.9004 34.7563L20.5086 35L20.1017 34.7563Z" stroke="#FF6E41" stroke-width="1.5" stroke-linecap="round" stroke-linejoin="round"/>
<path d="M26.7322 11.755C28.5077 12.3222 29.7693 13.9162 29.9269 15.7916" stroke="#FF6E41" stroke-width="1.5" stroke-linecap="round" stroke-linejoin="round"/>
</svg>
