<svg width="41" height="40" viewBox="0 0 41 40" fill="none" xmlns="http://www.w3.org/2000/svg">
<path d="M15.762 34.619V29.5078C15.762 28.2078 16.8218 27.1514 18.135 27.1427H22.9451C24.2645 27.1427 25.3341 28.2016 25.3341 29.5078V29.5078V34.6349C25.3338 35.7387 26.2237 36.6408 27.3384 36.6667H30.5451C33.7418 36.6667 36.3333 34.1012 36.3333 30.9364V30.9364V16.3964C36.3162 15.1514 35.7258 13.9823 34.7299 13.2218L23.7628 4.47554C21.8415 2.95265 19.1103 2.95265 17.189 4.47554L6.27 13.2376C5.27039 13.9951 4.67894 15.1662 4.66663 16.4123V30.9364C4.66663 34.1012 7.25808 36.6667 10.4548 36.6667H13.6616C14.8039 36.6667 15.7299 35.7499 15.7299 34.619V34.619" stroke="#FF6E41" stroke-width="1.5" stroke-linecap="round" stroke-linejoin="round"/>
</svg>
